AdventPro-thn_it.ufo
<glyph name="dollar" format="2">
  <advance width="525" height="962"/>
  <unicode hex="0024"/>
  <outline>
    <component base="S" xOffset="1.4561"/>
    <contour>
      <point x="242" y="-114" type="line"/>
      <point x="335.703" y="329.306" type="line"/>
      <point x="439" y="818" type="line"/>
      <point x="459" y="818" type="line"/>
      <point x="354.708" y="327.089" type="line"/>
      <point x="261" y="-114" type="line"/>
    </contour>
  </outline>
</glyph>
<glyph name="plus" format="2">
  <advance width="377" height="962"/>
  <unicode hex="002B"/>
  <outline>
    <contour>
      <point x="309" y="530" type="line"/>
      <point x="278" y="379" type="line"/>
      <point x="428" y="379" type="line"/>
      <point x="424" y="362" type="line"/>
      <point x="274" y="362" type="line"/>
      <point x="241" y="210" type="line"/>
      <point x="222" y="210" type="line"/>
      <point x="254" y="362" type="line"/>
      <point x="104" y="362" type="line"/>
      <point x="108" y="379" type="line"/>
      <point x="258" y="379" type="line"/>
      <point x="290" y="530" type="line"/>
    </contour>
  </outline>
</glyph>
<glyph name="seven" format="2">
  <advance width="429" height="962"/>
  <unicode hex="0037"/>
  <outline>
    <contour>
      <point x="58" y="0" type="line"/>
      <point x="36" y="0" type="line"/>
      <point x="539" y="680" type="line"/>
      <point x="170" y="680" type="line"/>
      <point x="174" y="700" type="line"/>
      <point x="568" y="700" type="line"/>
      <point x="564" y="680" type="line"/>
    </contour>
  </outline>
</glyph>
<glyph name="U" format="2">
  <advance width="498" height="962"/>
  <unicode hex="0055"/>
  <outline>
    <contour>
      <point x="497" y="186" type="line" smooth="yes"/>
      <point x="470" y="60"/>
      <point x="373" y="-11"/>
      <point x="246" y="-11" type="curve" smooth="yes"/>
      <point x="120" y="-11"/>
      <point x="50" y="57"/>
      <point x="78" y="186" type="curve" smooth="yes"/>
      <point x="187" y="700" type="line"/>
      <point x="205" y="700" type="line"/>
      <point x="96" y="185" type="line" smooth="yes"/>
      <point x="70" y="70"/>
      <point x="140" y="8"/>
      <point x="250" y="8" type="curve" smooth="yes"/>
      <point x="366" y="8"/>
      <point x="453" y="69"/>
      <point x="478" y="185" type="curve" smooth="yes"/>
      <point x="587" y="700" type="line"/>
      <point x="606" y="700" type="line"/>
    </contour>
  </outline>
</glyph>
<glyph name="backslash" format="2">
  <advance width="378" height="962"/>
  <unicode hex="005C"/>
  <outline>
    <contour>
      <point x="317" y="-114" type="line"/>
      <point x="190" y="818" type="line"/>
      <point x="211" y="818" type="line"/>
      <point x="337" y="-114" type="line"/>
    </contour>
  </outline>
</glyph>
<glyph name="c" format="2">
  <advance width="378" height="962"/>
  <unicode hex="0063"/>
  <outline>
    <contour>
      <point x="438" y="459" type="line"/>
      <point x="402" y="480"/>
      <point x="361" y="489"/>
      <point x="322" y="490" type="curve" smooth="yes"/>
      <point x="213" y="493"/>
      <point x="136" y="415"/>
      <point x="114" y="314" type="curve" smooth="yes"/>
      <point x="84" y="176" type="line" smooth="yes"/>
      <point x="60" y="59"/>
      <point x="111" y="11"/>
      <point x="219" y="9" type="curve" smooth="yes"/>
      <point x="287" y="8"/>
      <point x="353" y="26"/>
      <point x="352" y="25" type="curve"/>
      <point x="351" y="5" type="line"/>
      <point x="306" y="-6"/>
      <point x="256" y="-12"/>
      <point x="211" y="-11" type="curve" smooth="yes"/>
      <point x="98" y="-6"/>
      <point x="39" y="50"/>
      <point x="65" y="174" type="curve" smooth="yes"/>
      <point x="96" y="319" type="line" smooth="yes"/>
      <point x="120" y="432"/>
      <point x="197" y="510"/>
      <point x="322" y="510" type="curve" smooth="yes"/>
      <point x="367" y="510"/>
      <point x="412" y="498"/>
      <point x="450" y="478" type="curve"/>
    </contour>
  </outline>
</glyph>
<glyph name="braceleft" format="2">
  <advance width="236" height="962"/>
  <unicode hex="007B"/>
  <outline>
    <contour>
      <point x="234" y="517" type="line" smooth="yes"/>
      <point x="217.961" y="442.151"/>
      <point x="195.457" y="398.83"/>
      <point x="132" y="353" type="curve"/>
      <point x="179.775" y="303.314"/>
      <point x="178.674" y="253.812"/>
      <point x="165" y="190" type="curve" smooth="yes"/>
      <point x="141" y="76" type="line" smooth="yes"/>
      <point x="110" y="-69"/>
      <point x="197" y="-99"/>
      <point x="200" y="-99" type="curve"/>
      <point x="192" y="-118" type="line"/>
      <point x="189" y="-118"/>
      <point x="88" y="-85"/>
      <point x="123" y="76" type="curve" smooth="yes"/>
      <point x="147" y="190" type="line" smooth="yes"/>
      <point x="160.202" y="251.611"/>
      <point x="160.269" y="299.521"/>
      <point x="111" y="345" type="curve" smooth="yes"/>
      <point x="102" y="353" type="line"/>
      <point x="114" y="361" type="line" smooth="yes"/>
      <point x="176.992" y="401.86"/>
      <point x="200.636" y="445.303"/>
      <point x="216" y="517" type="curve" smooth="yes"/>
      <point x="240" y="630" type="line" smooth="yes"/>
      <point x="275" y="791"/>
      <point x="388" y="820"/>
      <point x="392" y="823" type="curve"/>
      <point x="391" y="803" type="line"/>
      <point x="388" y="803"/>
      <point x="289" y="774"/>
      <point x="258" y="630" type="curve" smooth="yes"/>
    </contour>
  </outline>
</glyph>
<glyph name="guillemotleft" format="2">
  <advance width="509"/>
  <unicode hex="00AB"/>
  <outline>
    <contour>
      <point x="334.54" y="266" type="line"/>
      <point x="547.737" y="441" type="line"/>
      <point x="535.713" y="455" type="line"/>
      <point x="307.753" y="267" type="line"/>
      <point x="455.792" y="79" type="line"/>
      <point x="471.343" y="91" type="line"/>
    </contour>
    <contour>
      <point x="115.54" y="266" type="line"/>
      <point x="327.737" y="441" type="line"/>
      <point x="314.713" y="455" type="line"/>
      <point x="87.7526" y="267" type="line"/>
      <point x="234.792" y="79" type="line"/>
      <point x="251.343" y="91" type="line"/>
    </contour>
  </outline>
</glyph>
<glyph name="registered" format="2">
  <advance width="695" height="962"/>
  <unicode hex="00AE"/>
  <outline>
    <contour>
      <point x="704" y="192" type="line" smooth="yes"/>
      <point x="668" y="21"/>
      <point x="517" y="-68"/>
      <point x="332" y="-68" type="curve" smooth="yes"/>
      <point x="149" y="-68"/>
      <point x="35" y="20"/>
      <point x="71" y="192" type="curve" smooth="yes"/>
      <point x="99" y="320" type="line" smooth="yes"/>
      <point x="135" y="491"/>
      <point x="286" y="581"/>
      <point x="470" y="581" type="curve" smooth="yes"/>
      <point x="654" y="581"/>
      <point x="767" y="492"/>
      <point x="731" y="320" type="curve" smooth="yes"/>
    </contour>
    <contour>
      <point x="711" y="317" type="line" smooth="yes"/>
      <point x="746" y="480"/>
      <point x="643" y="563"/>
      <point x="469" y="563" type="curve" smooth="yes"/>
      <point x="295" y="563"/>
      <point x="152" y="480"/>
      <point x="116" y="317" type="curve" smooth="yes"/>
      <point x="89" y="195" type="line" smooth="yes"/>
      <point x="53" y="33"/>
      <point x="158" y="-52"/>
      <point x="335" y="-52" type="curve" smooth="yes"/>
      <point x="510" y="-52"/>
      <point x="650" y="33"/>
      <point x="685" y="195" type="curve" smooth="yes"/>
    </contour>
    <contour>
      <point x="517" y="443" type="line" smooth="yes"/>
      <point x="579" y="443"/>
      <point x="617" y="419"/>
      <point x="597" y="329" type="curve" smooth="yes"/>
      <point x="580" y="247"/>
      <point x="543" y="220"/>
      <point x="487" y="216" type="curve"/>
      <point x="536" y="59" type="line"/>
      <point x="516" y="59" type="line"/>
      <point x="466" y="213" type="line"/>
      <point x="252" y="213" type="line"/>
      <point x="219" y="59" type="line"/>
      <point x="199" y="59" type="line"/>
      <point x="281" y="443" type="line"/>
    </contour>
    <contour>
      <point x="480" y="233" type="line" smooth="yes"/>
      <point x="540" y="233"/>
      <point x="566" y="262"/>
      <point x="579" y="328" type="curve" smooth="yes"/>
      <point x="593" y="395"/>
      <point x="578" y="423"/>
      <point x="520" y="423" type="curve" smooth="yes"/>
      <point x="297" y="423" type="line"/>
      <point x="256" y="233" type="line"/>
    </contour>
  </outline>
</glyph>
<glyph name="paragraph" format="2">
  <advance width="605" height="962"/>
  <unicode hex="00B6"/>
  <outline>
    <contour>
      <point x="280" y="283" type="line" smooth="yes"/>
      <point x="146" y="283"/>
      <point x="105" y="357"/>
      <point x="135" y="495" type="curve" smooth="yes"/>
      <point x="162" y="625"/>
      <point x="236" y="702"/>
      <point x="362" y="702" type="curve" smooth="yes"/>
      <point x="711" y="702" type="line"/>
      <point x="562" y="1" type="line"/>
      <point x="542" y="1" type="line"/>
      <point x="687" y="682" type="line"/>
      <point x="608" y="682" type="line"/>
      <point x="463" y="1" type="line"/>
      <point x="443" y="1" type="line"/>
      <point x="504" y="283" type="line"/>
    </contour>
    <contour>
      <point x="357" y="682" type="line" smooth="yes"/>
      <point x="242" y="682"/>
      <point x="178" y="614"/>
      <point x="153" y="495" type="curve" smooth="yes"/>
      <point x="126" y="371"/>
      <point x="163" y="301"/>
      <point x="286" y="301" type="curve" smooth="yes"/>
      <point x="508" y="301" type="line"/>
      <point x="588" y="682" type="line"/>
    </contour>
  </outline>
</glyph>
<glyph name="eth" format="2">
  <advance width="419" height="962"/>
  <unicode hex="00F0"/>
  <outline>
    <contour>
      <point x="449" y="652" type="curve"/>
      <point x="509" y="702" type="line"/>
      <point x="519" y="690" type="line"/>
      <point x="460" y="640" type="line"/>
      <point x="500" y="590"/>
      <point x="506" y="533"/>
      <point x="493" y="471" type="curve" smooth="yes"/>
      <point x="433" y="188" type="line" smooth="yes"/>
      <point x="406" y="61"/>
      <point x="324" y="-9"/>
      <point x="205" y="-9" type="curve" smooth="yes"/>
      <point x="86" y="-9"/>
      <point x="37" y="66"/>
      <point x="63" y="188" type="curve" smooth="yes"/>
      <point x="75" y="246" type="line" smooth="yes"/>
      <point x="102" y="369"/>
      <point x="180" y="434"/>
      <point x="291" y="434" type="curve" smooth="yes"/>
      <point x="352" y="434"/>
      <point x="436" y="398"/>
      <point x="445" y="340" type="curve"/>
      <point x="473" y="471" type="line" smooth="yes"/>
      <point x="489" y="545"/>
      <point x="473" y="595"/>
      <point x="445" y="628" type="curve"/>
      <point x="309" y="514" type="line"/>
      <point x="298" y="526" type="line"/>
      <point x="434" y="639" type="line"/>
      <point x="401" y="670"/>
      <point x="358" y="683"/>
      <point x="328" y="688" type="curve"/>
      <point x="334" y="701" type="line"/>
      <point x="383" y="695"/>
      <point x="421" y="678"/>
    </contour>
    <contour>
      <point x="209" y="11" type="curve" smooth="yes"/>
      <point x="320" y="11"/>
      <point x="389" y="76"/>
      <point x="412" y="183" type="curve" smooth="yes"/>
      <point x="431" y="274" type="line"/>
      <point x="455" y="371"/>
      <point x="358" y="423"/>
      <point x="271" y="417" type="curve" smooth="yes"/>
      <point x="183" y="412"/>
      <point x="119" y="354"/>
      <point x="97" y="252" type="curve" smooth="yes"/>
      <point x="82" y="183" type="line" smooth="yes"/>
      <point x="58" y="69"/>
      <point x="108" y="11"/>
    </contour>
  </outline>
</glyph>
<glyph name="thorn" format="2">
  <advance width="440" height="962"/>
  <unicode hex="00FE"/>
  <outline>
    <contour>
      <point x="446" y="176" type="line"/>
      <point x="421" y="54"/>
      <point x="340" y="-12"/>
      <point x="229" y="-12" type="curve" smooth="yes"/>
      <point x="169" y="-12"/>
      <point x="88" y="23"/>
      <point x="76" y="80" type="curve"/>
      <point x="14" y="-213" type="line"/>
      <point x="-5" y="-207" type="line"/>
      <point x="188" y="700" type="line"/>
      <point x="208" y="700" type="line"/>
      <point x="156" y="453" type="line"/>
      <point x="215" y="487"/>
      <point x="285" y="508"/>
      <point x="343" y="510" type="curve" smooth="yes"/>
      <point x="453" y="514"/>
      <point x="506" y="452"/>
      <point x="483" y="345" type="curve" smooth="yes"/>
    </contour>
    <contour>
      <point x="464" y="347" type="line" smooth="yes"/>
      <point x="486" y="452"/>
      <point x="428" y="491"/>
      <point x="356" y="493" type="curve" smooth="yes"/>
      <point x="302" y="494"/>
      <point x="203" y="467"/>
      <point x="150" y="427" type="curve"/>
      <point x="91" y="148" type="line" smooth="yes"/>
      <point x="70" y="50"/>
      <point x="158" y="-1"/>
      <point x="245" y="4" type="curve" smooth="yes"/>
      <point x="333" y="9"/>
      <point x="404" y="67"/>
      <point x="426" y="169" type="curve" smooth="yes"/>
    </contour>
  </outline>
</glyph>
<glyph name="Tbar" format="2">
  <advance width="409" height="962"/>
  <unicode hex="0166"/>
  <outline>
    <component base="T"/>
    <contour>
      <point x="84" y="379" type="line"/>
      <point x="485" y="379" type="line"/>
      <point x="481" y="360" type="line"/>
      <point x="80" y="360" type="line"/>
    </contour>
  </outline>
</glyph>
<glyph name="Lambda" format="2">
  <advance width="544" height="962"/>
  <unicode hex="039B"/>
  <outline>
    <contour>
      <point x="412" y="670" type="line"/>
      <point x="38" y="0" type="line"/>
      <point x="19" y="0" type="line"/>
      <point x="410" y="700" type="line"/>
      <point x="429" y="700" type="line"/>
      <point x="525" y="0" type="line"/>
      <point x="505" y="0" type="line"/>
    </contour>
  </outline>
</glyph>
<glyph name="iotatonos" format="2">
  <advance width="96" height="962"/>
  <unicode hex="03AF"/>
  <outline>
    <component base="dotlessi"/>
    <contour>
      <point x="258" y="653" type="curve" smooth="yes"/>
      <point x="180" y="553" type="line"/>
      <point x="159" y="553" type="line"/>
      <point x="236" y="668" type="line" smooth="yes"/>
      <point x="242" y="677"/>
      <point x="252" y="681"/>
      <point x="259" y="677" type="curve" smooth="yes"/>
      <point x="267" y="672"/>
      <point x="265" y="661"/>
    </contour>
  </outline>
</glyph>
<glyph name="alpha" format="2">
  <advance width="438" height="962"/>
  <unicode hex="03B1"/>
  <outline>
    <contour>
      <point x="506" y="487" type="line"/>
      <point x="499" y="470"/>
      <point x="492" y="453"/>
      <point x="488" y="434" type="curve" smooth="yes"/>
      <point x="396" y="4" type="line"/>
      <point x="398" y="5"/>
      <point x="280" y="-4"/>
      <point x="206" y="-4" type="curve" smooth="yes"/>
      <point x="69" y="-4"/>
      <point x="46" y="76"/>
      <point x="64" y="158" type="curve" smooth="yes"/>
      <point x="106" y="354" type="line" smooth="yes"/>
      <point x="131" y="476"/>
      <point x="216" y="508"/>
      <point x="295" y="508" type="curve" smooth="yes"/>
      <point x="356" y="508"/>
      <point x="420" y="485"/>
      <point x="475" y="455" type="curve"/>
      <point x="481" y="472"/>
      <point x="490" y="490"/>
      <point x="490" y="490" type="curve"/>
    </contour>
    <contour>
      <point x="84" y="163" type="line" smooth="yes"/>
      <point x="63" y="65"/>
      <point x="104" y="14"/>
      <point x="210" y="14" type="curve" smooth="yes"/>
      <point x="278" y="14"/>
      <point x="383" y="23"/>
      <point x="381" y="22" type="curve"/>
      <point x="469" y="433" type="line"/>
      <point x="410" y="472"/>
      <point x="353" y="489"/>
      <point x="290" y="489" type="curve" smooth="yes"/>
      <point x="201" y="489"/>
      <point x="143" y="439"/>
      <point x="124" y="351" type="curve" smooth="yes"/>
    </contour>
  </outline>
</glyph>
<glyph name="sigma1" format="2">
  <advance width="336" height="962"/>
  <unicode hex="03C2"/>
  <outline>
    <contour>
      <point x="102" y="284" type="line" smooth="yes"/>
      <point x="91" y="235"/>
      <point x="95" y="201"/>
      <point x="143" y="161" type="curve" smooth="yes"/>
      <point x="227" y="92" type="line" smooth="yes"/>
      <point x="268" y="59"/>
      <point x="288" y="29"/>
      <point x="278" y="-22" type="curve" smooth="yes"/>
      <point x="265" y="-80"/>
      <point x="205" y="-121"/>
      <point x="164" y="-143" type="curve"/>
      <point x="155" y="-126" type="line"/>
      <point x="196" y="-104"/>
      <point x="248" y="-68"/>
      <point x="258" y="-22" type="curve" smooth="yes"/>
      <point x="267" y="20"/>
      <point x="249" y="49"/>
      <point x="214" y="77" type="curve" smooth="yes"/>
      <point x="130" y="146" type="line" smooth="yes"/>
      <point x="80" y="186"/>
      <point x="69" y="225"/>
      <point x="81" y="284" type="curve" smooth="yes"/>
      <point x="99" y="367" type="line" smooth="yes"/>
      <point x="122" y="472"/>
      <point x="207" y="505"/>
      <point x="292" y="505" type="curve" smooth="yes"/>
      <point x="367" y="505"/>
      <point x="409" y="471"/>
      <point x="409" y="470" type="curve"/>
      <point x="396" y="455" type="line"/>
      <point x="396" y="453"/>
      <point x="356" y="487"/>
      <point x="288" y="487" type="curve" smooth="yes"/>
      <point x="214" y="487"/>
      <point x="138" y="455"/>
      <point x="119" y="364" type="curve" smooth="yes"/>
    </contour>
  </outline>
</glyph>
<glyph name="uni040B" format="2">
  <advance width="582" height="962"/>
  <unicode hex="040B"/>
  <outline>
    <component base="T" xOffset="1"/>
    <contour>
      <point x="479" y="511" type="curve" smooth="yes"/>
      <point x="565" y="511"/>
      <point x="645" y="486"/>
      <point x="616" y="346" type="curve" smooth="yes"/>
      <point x="542" y="0" type="line"/>
      <point x="523" y="0" type="line"/>
      <point x="597" y="347" type="line" smooth="yes"/>
      <point x="620" y="454"/>
      <point x="575" y="495"/>
      <point x="479" y="495" type="curve" smooth="yes"/>
      <point x="428" y="495"/>
      <point x="364" y="480"/>
      <point x="308" y="455" type="curve"/>
      <point x="312" y="473" type="line"/>
      <point x="348" y="487"/>
      <point x="418" y="511"/>
    </contour>
  </outline>
</glyph>
<glyph name="uni0411" format="2">
  <advance width="458" height="962"/>
  <unicode hex="0411"/>
  <outline>
    <component base="uni042C"/>
    <contour>
      <point x="187" y="680" type="line"/>
      <point x="191" y="700" type="line"/>
      <point x="525" y="700" type="line"/>
      <point x="521" y="680" type="line"/>
    </contour>
  </outline>
</glyph>
<glyph name="uni041B" format="2">
  <advance width="535" height="962"/>
  <unicode hex="041B"/>
  <outline>
    <contour>
      <point x="549" y="700" type="curve" smooth="yes"/>
      <point x="653" y="700" type="line"/>
      <point x="504" y="-1" type="line"/>
      <point x="486" y="-1" type="line"/>
      <point x="631" y="683" type="line"/>
      <point x="549" y="683" type="line" smooth="yes"/>
      <point x="455" y="683"/>
      <point x="417" y="617"/>
      <point x="397" y="578" type="curve" smooth="yes"/>
      <point x="157" y="112" type="line" smooth="yes"/>
      <point x="123" y="47"/>
      <point x="100" y="18"/>
      <point x="39" y="-8" type="curve"/>
      <point x="31" y="5" type="line"/>
      <point x="98" y="34"/>
      <point x="119" y="77"/>
      <point x="140" y="117" type="curve" smooth="yes"/>
      <point x="383" y="590" type="line" smooth="yes"/>
      <point x="407" y="634"/>
      <point x="455" y="700"/>
    </contour>
  </outline>
</glyph>
<glyph name="uni0423" format="2">
  <advance width="484" height="962"/>
  <unicode hex="0423"/>
  <outline>
    <contour>
      <point x="605" y="700" type="line"/>
      <point x="625" y="700" type="line"/>
      <point x="211" y="111" type="line" smooth="yes"/>
      <point x="165" y="46"/>
      <point x="135" y="17"/>
      <point x="69" y="-9" type="curve"/>
      <point x="64" y="4" type="line"/>
      <point x="137" y="34"/>
      <point x="165" y="76"/>
      <point x="194" y="116" type="curve" smooth="yes"/>
      <point x="291" y="255" type="line"/>
      <point x="156" y="700" type="line"/>
      <point x="175" y="700" type="line"/>
      <point x="305" y="274" type="line"/>
    </contour>
  </outline>
</glyph>
<glyph name="uni0434" format="2">
  <advance width="507" height="962"/>
  <unicode hex="0434"/>
  <outline>
    <contour>
      <point x="444" y="18" type="line"/>
      <point x="500" y="18" type="line"/>
      <point x="478" y="-87" type="line"/>
      <point x="462" y="-87" type="line"/>
      <point x="477" y="0" type="line"/>
      <point x="28" y="0" type="line"/>
      <point x="7" y="-87" type="line"/>
      <point x="-9" y="-87" type="line"/>
      <point x="13" y="18" type="line"/>
      <point x="57" y="18" type="line"/>
      <point x="249" y="390" type="line" smooth="yes"/>
      <point x="271" y="434"/>
      <point x="321" y="500"/>
      <point x="415" y="500" type="curve" smooth="yes"/>
      <point x="546" y="500" type="line"/>
    </contour>
    <contour>
      <point x="77" y="18" type="line"/>
      <point x="426" y="18" type="line"/>
      <point x="525" y="483" type="line"/>
      <point x="416" y="483" type="line" smooth="yes"/>
      <point x="322" y="483"/>
      <point x="283" y="417"/>
      <point x="262" y="378" type="curve" smooth="yes"/>
    </contour>
  </outline>
</glyph>
<glyph name="uni0452" format="2">
  <advance width="469" height="962"/>
  <unicode hex="0452"/>
  <outline>
    <contour>
      <point x="148" y="618" type="line"/>
      <point x="384" y="618" type="line"/>
      <point x="380" y="598" type="line"/>
      <point x="144" y="598" type="line"/>
    </contour>
    <contour>
      <point x="359" y="511" type="curve" smooth="yes"/>
      <point x="444" y="512"/>
      <point x="540" y="494"/>
      <point x="509" y="346" type="curve" smooth="yes"/>
      <point x="421" y="-68" type="line" smooth="yes"/>
      <point x="403" y="-149"/>
      <point x="364" y="-185"/>
      <point x="282" y="-214" type="curve"/>
      <point x="280" y="-197" type="line"/>
      <point x="333" y="-178"/>
      <point x="385" y="-152"/>
      <point x="402" y="-70" type="curve" smooth="yes"/>
      <point x="491" y="347" type="line" smooth="yes"/>
      <point x="514" y="455"/>
      <point x="464" y="496"/>
      <point x="367" y="496" type="curve" smooth="yes"/>
      <point x="308" y="496"/>
      <point x="235" y="480"/>
      <point x="180" y="455" type="curve"/>
      <point x="83" y="0" type="line"/>
      <point x="63" y="0" type="line"/>
      <point x="212" y="700" type="line"/>
      <point x="232" y="700" type="line"/>
      <point x="184" y="473" type="line"/>
      <point x="236" y="493"/>
      <point x="299" y="510"/>
    </contour>
  </outline>
</glyph>
<glyph name="uni046B" format="2">
  <advance width="578" height="962"/>
  <unicode hex="046B"/>
  <outline>
    <contour>
      <point x="429" y="302" type="line" smooth="yes"/>
      <point x="555" y="302"/>
      <point x="603" y="230"/>
      <point x="577" y="109" type="curve" smooth="yes"/>
      <point x="554" y="0" type="line"/>
      <point x="536" y="0" type="line"/>
      <point x="559" y="109" type="line" smooth="yes"/>
      <point x="585" y="230"/>
      <point x="529" y="285"/>
      <point x="426" y="285" type="curve" smooth="yes"/>
      <point x="359" y="285" type="line"/>
      <point x="298" y="0" type="line"/>
      <point x="279" y="0" type="line"/>
      <point x="340" y="285" type="line"/>
      <point x="275" y="285" type="line" smooth="yes"/>
      <point x="164" y="285"/>
      <point x="92" y="221"/>
      <point x="68" y="109" type="curve" smooth="yes"/>
      <point x="45" y="0" type="line"/>
      <point x="27" y="0" type="line"/>
      <point x="50" y="109" type="line" smooth="yes"/>
      <point x="76" y="230"/>
      <point x="151" y="302"/>
      <point x="278" y="302" type="curve" smooth="yes"/>
      <point x="342" y="302" type="line"/>
      <point x="177" y="500" type="line"/>
      <point x="610" y="500" type="line"/>
      <point x="365" y="302" type="line"/>
    </contour>
    <contour>
      <point x="356" y="315" type="line"/>
      <point x="565" y="483" type="line"/>
      <point x="217" y="483" type="line"/>
    </contour>
  </outline>
</glyph>
<glyph name="uni049B" format="2">
  <advance width="415" height="962"/>
  <unicode hex="049B"/>
  <outline>
    <contour>
      <point x="374" y="0" type="line"/>
      <point x="355" y="0" type="line"/>
      <point x="211" y="278" type="line"/>
      <point x="94" y="179" type="line"/>
      <point x="56" y="0" type="line"/>
      <point x="38" y="0" type="line"/>
      <point x="147" y="511" type="line"/>
      <point x="164" y="507" type="line"/>
      <point x="99" y="203" type="line"/>
      <point x="438" y="500" type="line"/>
      <point x="461" y="500" type="line"/>
      <point x="226" y="292" type="line"/>
    </contour>
    <contour>
      <point x="364" y="19" type="line"/>
      <point x="396" y="19" type="line"/>
      <point x="374" y="-87" type="line"/>
      <point x="358" y="-87" type="line"/>
      <point x="373" y="0" type="line"/>
      <point x="360" y="0" type="line"/>
    </contour>
  </outline>
</glyph>
<glyph name="uni04D8" format="2">
  <advance width="490" height="962"/>
  <unicode hex="04D8"/>
  <outline>
    <contour>
      <point x="412" y="710" type="curve" smooth="yes"/>
      <point x="512" y="710"/>
      <point x="596" y="660"/>
      <point x="565" y="514" type="curve" smooth="yes"/>
      <point x="496" y="186" type="line" smooth="yes"/>
      <point x="469" y="63"/>
      <point x="370" y="-11"/>
      <point x="244" y="-11" type="curve" smooth="yes"/>
      <point x="127" y="-11"/>
      <point x="46" y="56"/>
      <point x="74" y="186" type="curve" smooth="yes"/>
      <point x="105" y="335" type="line"/>
      <point x="512" y="353" type="line"/>
      <point x="546" y="514" type="line" smooth="yes"/>
      <point x="571" y="632"/>
      <point x="521" y="691"/>
      <point x="405" y="691" type="curve" smooth="yes"/>
      <point x="363" y="691"/>
      <point x="316" y="683"/>
      <point x="267" y="660" type="curve"/>
      <point x="263" y="677" type="line"/>
      <point x="308" y="699"/>
      <point x="358" y="710"/>
    </contour>
    <contour>
      <point x="248" y="8" type="curve" smooth="yes"/>
      <point x="357" y="8"/>
      <point x="451" y="66"/>
      <point x="476" y="185" type="curve" smooth="yes"/>
      <point x="508" y="335" type="line"/>
      <point x="121" y="318" type="line"/>
      <point x="92" y="185" type="line" smooth="yes"/>
      <point x="67" y="66"/>
      <point x="142" y="8"/>
    </contour>
  </outline>
</glyph>
<glyph name="uni2013" format="2">
  <advance width="500"/>
  <unicode hex="2013"/>
  <outline>
    <contour>
      <point x="136.88" y="394.1" type="line"/>
      <point x="141.144" y="414.156" type="line"/>
      <point x="541.037" y="414.156" type="line"/>
      <point x="536.773" y="394.1" type="line"/>
    </contour>
  </outline>
</glyph>
<glyph name="fraction" format="2">
  <advance width="380" height="962"/>
  <unicode hex="2044"/>
  <outline>
    <contour>
      <point x="-6" y="-114" type="line"/>
      <point x="512" y="818" type="line"/>
      <point x="532" y="818" type="line"/>
      <point x="14" y="-114" type="line"/>
    </contour>
  </outline>
</glyph>
